<svg width="32" height="32" viewBox="0 0 28 28" xmlns="http://www.w3.org/2000/svg">
  <rect width="28" height="28" fill="#070707"/>
  <line x1="14" y1="2" x2="23" y2="7" stroke="#f59e0b" stroke-width="0.8" opacity="0.5"/>
  <line x1="23" y1="7" x2="23" y2="21" stroke="#f59e0b" stroke-width="0.8" opacity="0.5"/>
  <line x1="23" y1="21" x2="14" y2="26" stroke="#f59e0b" stroke-width="0.8" opacity="0.5"/>
  <line x1="14" y1="26" x2="5" y2="21" stroke="#f59e0b" stroke-width="0.8" opacity="0.5"/>
  <line x1="5" y1="21" x2="5" y2="7" stroke="#f59e0b" stroke-width="0.8" opacity="0.5"/>
  <line x1="5" y1="7" x2="14" y2="2" stroke="#f59e0b" stroke-width="0.8" opacity="0.5"/>
  <line x1="14" y1="14" x2="14" y2="2" stroke="#f59e0b" stroke-width="0.5" opacity="0.25"/>
  <line x1="14" y1="14" x2="23" y2="7" stroke="#f59e0b" stroke-width="0.5" opacity="0.25"/>
  <line x1="14" y1="14" x2="23" y2="21" stroke="#f59e0b" stroke-width="0.5" opacity="0.25"/>
  <line x1="14" y1="14" x2="14" y2="26" stroke="#f59e0b" stroke-width="0.5" opacity="0.25"/>
  <line x1="14" y1="14" x2="5" y2="21" stroke="#f59e0b" stroke-width="0.5" opacity="0.25"/>
  <line x1="14" y1="14" x2="5" y2="7" stroke="#f59e0b" stroke-width="0.5" opacity="0.25"/>
  <circle cx="14" cy="2" r="2.6" fill="#f59e0b"/>
  <circle cx="23" cy="7" r="2.6" fill="#f59e0b"/>
  <circle cx="23" cy="21" r="2.6" fill="#f59e0b"/>
  <circle cx="14" cy="26" r="2.6" fill="#f59e0b"/>
  <circle cx="5" cy="21" r="2.6" fill="#f59e0b"/>
  <circle cx="5" cy="7" r="2.6" fill="#f59e0b"/>
  <circle cx="14" cy="14" r="2" fill="#f59e0b"/>
</svg>
